<svg viewBox="0 0 400 500" xmlns="http://www.w3.org/2000/svg" role="img" aria-label="Developer profile illustration" shape-rendering="geometricPrecision" text-rendering="geometricPrecision">
  <defs>
    <linearGradient id="bg" x1="0" y1="0" x2="1" y2="1">
      <stop offset="0" stop-color="#0d1426"/>
      <stop offset="1" stop-color="#07101f"/>
    </linearGradient>
    <linearGradient id="card" x1="0" y1="0" x2="1" y2="1">
      <stop offset="0" stop-color="#111a2e"/>
      <stop offset="1" stop-color="#16243d"/>
    </linearGradient>
    <linearGradient id="accent" x1="0" y1="0" x2="1" y2="1">
      <stop offset="0" stop-color="#38bdf8"/>
      <stop offset="1" stop-color="#2dd4bf"/>
    </linearGradient>
    <linearGradient id="accentAlt" x1="0" y1="0" x2="1" y2="1">
      <stop offset="0" stop-color="#818cf8"/>
      <stop offset="1" stop-color="#38bdf8"/>
    </linearGradient>
  </defs>

  <rect width="400" height="500" rx="24" fill="url(#bg)"/>
  <path d="M0 92C58 54 112 45 162 65c56 22 96 21 144-10 38-24 70-24 94-12v457H0z" fill="#0b1324" opacity=".72"/>
  <path d="M400 390c-48 28-103 32-166 12-58-18-102-10-148 26-33 26-62 31-86 21v51h400z" fill="#102039" opacity=".75"/>

  <g fill="#9fb0c7" opacity=".16">
    <circle cx="42" cy="58" r="2"/><circle cx="72" cy="58" r="2"/><circle cx="102" cy="58" r="2"/>
    <circle cx="42" cy="88" r="2"/><circle cx="72" cy="88" r="2"/><circle cx="102" cy="88" r="2"/>
    <circle cx="298" cy="414" r="2"/><circle cx="328" cy="414" r="2"/><circle cx="358" cy="414" r="2"/>
    <circle cx="298" cy="444" r="2"/><circle cx="328" cy="444" r="2"/><circle cx="358" cy="444" r="2"/>
  </g>

  <g stroke="#263a5c" stroke-width="2" fill="none" opacity=".95">
    <path d="M56 150h52c14 0 22 8 22 22v34"/>
    <path d="M346 158h-54c-14 0-22 8-22 22v30"/>
    <path d="M65 355h48c14 0 22-8 22-22v-30"/>
    <path d="M336 356h-48c-14 0-22-8-22-22v-26"/>
  </g>

  <g>
    <rect x="54" y="78" width="292" height="254" rx="28" fill="#070d1a" opacity=".45"/>
    <rect x="64" y="68" width="272" height="252" rx="26" fill="url(#card)" stroke="#263a5c" stroke-width="2"/>
    <rect x="82" y="88" width="236" height="212" rx="18" fill="#0b1120" stroke="#22334f" stroke-width="2"/>

    <rect x="82" y="88" width="236" height="38" rx="18" fill="#0e182b"/>
    <circle cx="105" cy="107" r="5" fill="#ef4444"/>
    <circle cx="123" cy="107" r="5" fill="#f59e0b"/>
    <circle cx="141" cy="107" r="5" fill="#22c55e"/>
    <rect x="210" y="101" width="82" height="10" rx="5" fill="#263855"/>

    <circle cx="138" cy="181" r="38" fill="#13223a" stroke="#2f456b" stroke-width="2"/>
    <circle cx="138" cy="169" r="19" fill="url(#accent)"/>
    <path d="M99 220c10-31 68-31 78 0" fill="#1b3150"/>

    <rect x="198" y="154" width="80" height="10" rx="5" fill="url(#accent)"/>
    <rect x="198" y="180" width="98" height="8" rx="4" fill="#2a3d5e"/>
    <rect x="198" y="204" width="74" height="8" rx="4" fill="#2a3d5e"/>
    <rect x="198" y="228" width="106" height="8" rx="4" fill="#2a3d5e"/>
    <rect x="198" y="252" width="64" height="8" rx="4" fill="#2a3d5e"/>

    <rect x="104" y="252" width="54" height="12" rx="6" fill="#263855"/>
    <rect x="166" y="252" width="24" height="12" rx="6" fill="#38bdf8" opacity=".85"/>
  </g>

  <g>
    <rect x="52" y="348" width="296" height="48" rx="17" fill="#0b1120" stroke="#22334f" stroke-width="2"/>
    <path d="M87 373l-15-13 15-13" fill="none" stroke="#38bdf8" stroke-width="6" stroke-linecap="round" stroke-linejoin="round"/>
    <path d="M313 347l15 13-15 13" fill="none" stroke="#2dd4bf" stroke-width="6" stroke-linecap="round" stroke-linejoin="round"/>
    <rect x="114" y="360" width="72" height="8" rx="4" fill="#263855"/>
    <rect x="198" y="360" width="54" height="8" rx="4" fill="url(#accentAlt)"/>
    <rect x="114" y="377" width="136" height="7" rx="3.5" fill="#263855"/>
    <rect x="262" y="377" width="28" height="7" rx="3.5" fill="#2dd4bf" opacity=".85"/>
  </g>

  <g>
    <rect x="36" y="250" width="78" height="68" rx="18" fill="#111a2e" stroke="#263a5c" stroke-width="2"/>
    <path d="M58 283h34M58 299h22" stroke="#38bdf8" stroke-width="7" stroke-linecap="round"/>
    <path d="M61 266l15-8 15 8-15 8z" fill="#2dd4bf"/>
  </g>

  <g>
    <rect x="284" y="250" width="80" height="68" rx="18" fill="#111a2e" stroke="#263a5c" stroke-width="2"/>
    <circle cx="310" cy="284" r="10" fill="#38bdf8" opacity=".9"/>
    <circle cx="332" cy="284" r="10" fill="#2dd4bf" opacity=".9"/>
    <path d="M310 284h22" stroke="#e8eef7" stroke-width="4" stroke-linecap="round" opacity=".72"/>
  </g>

  <g>
    <rect x="96" y="430" width="208" height="8" rx="4" fill="#18243d"/>
    <rect x="146" y="430" width="108" height="8" rx="4" fill="url(#accent)"/>
  </g>
</svg>
