<svg viewBox="0 0 400 500" xmlns="http://www.w3.org/2000/svg" role="img" aria-label="Programming workspace illustration">
  <defs>
    <linearGradient id="bg" x1="0" y1="0" x2="1" y2="1">
      <stop offset="0" stop-color="#0d1426"/>
      <stop offset="1" stop-color="#070b16"/>
    </linearGradient>
    <linearGradient id="panel" x1="0" y1="0" x2="1" y2="1">
      <stop offset="0" stop-color="#111a2e"/>
      <stop offset="1" stop-color="#141f36"/>
    </linearGradient>
    <linearGradient id="accent" x1="0" y1="0" x2="1" y2="1">
      <stop offset="0" stop-color="#38bdf8"/>
      <stop offset="1" stop-color="#2dd4bf"/>
    </linearGradient>
    <linearGradient id="accent2" x1="0" y1="0" x2="1" y2="1">
      <stop offset="0" stop-color="#818cf8"/>
      <stop offset="1" stop-color="#38bdf8"/>
    </linearGradient>
    <filter id="soft" x="-40%" y="-40%" width="180%" height="180%">
      <feGaussianBlur stdDeviation="26"/>
    </filter>
    <filter id="shadow" x="-30%" y="-30%" width="160%" height="160%">
      <feDropShadow dx="0" dy="16" stdDeviation="18" flood-color="#000" flood-opacity="0.5"/>
    </filter>
  </defs>

  <rect width="400" height="500" rx="24" fill="url(#bg)"/>
  <circle cx="318" cy="76" r="92" fill="#38bdf8" opacity="0.18" filter="url(#soft)"/>
  <circle cx="72" cy="426" r="104" fill="#2dd4bf" opacity="0.15" filter="url(#soft)"/>

  <g stroke="#9fb0c7" stroke-width="1" opacity="0.18" fill="none">
    <path d="M48 92h54c14 0 20 8 20 20v18"/>
    <path d="M310 392h-42c-15 0-24-9-24-24v-22"/>
    <path d="M52 358h46c16 0 24-8 24-24v-24"/>
    <path d="M332 142h-38c-16 0-24 8-24 24v18"/>
  </g>

  <g fill="#9fb0c7" opacity="0.16">
    <circle cx="48" cy="92" r="3"/><circle cx="122" cy="130" r="3"/>
    <circle cx="332" cy="142" r="3"/><circle cx="270" cy="184" r="3"/>
    <circle cx="52" cy="358" r="3"/><circle cx="122" cy="310" r="3"/>
    <circle cx="310" cy="392" r="3"/><circle cx="244" cy="346" r="3"/>
  </g>

  <g filter="url(#shadow)">
    <rect x="72" y="82" width="256" height="214" rx="22" fill="#0b1120" stroke="#22334f" stroke-width="2"/>
    <rect x="84" y="94" width="232" height="190" rx="16" fill="url(#panel)"/>
    <rect x="84" y="94" width="232" height="34" rx="16" fill="#0d1628"/>
    <circle cx="106" cy="111" r="5" fill="#f87171"/>
    <circle cx="124" cy="111" r="5" fill="#fbbf24"/>
    <circle cx="142" cy="111" r="5" fill="#34d399"/>
    <text x="200" y="116" font-family="Sora, Inter, sans-serif" font-size="12" font-weight="700" fill="#9fb0c7" text-anchor="middle">portfolio.dev</text>

    <g font-family="Consolas, 'Courier New', monospace" font-size="13" font-weight="700">
      <text x="106" y="154" fill="#818cf8">const</text>
      <text x="150" y="154" fill="#e8eef7">developer</text>
      <text x="226" y="154" fill="#9fb0c7">=</text>
      <text x="244" y="154" fill="#2dd4bf">{</text>

      <text x="122" y="182" fill="#38bdf8">skills:</text>
      <text x="184" y="182" fill="#e8eef7">[React, Node]</text>
      <text x="122" y="210" fill="#38bdf8">focus:</text>
      <text x="176" y="210" fill="#e8eef7">'clean code'</text>
      <text x="122" y="238" fill="#38bdf8">build:</text>
      <text x="176" y="238" fill="#e8eef7">ship()</text>
      <text x="244" y="266" fill="#2dd4bf">}</text>
    </g>
  </g>

  <g filter="url(#shadow)">
    <rect x="46" y="318" width="184" height="96" rx="18" fill="#0b1120" stroke="#22334f" stroke-width="2"/>
    <rect x="62" y="338" width="56" height="8" rx="4" fill="url(#accent)"/>
    <rect x="62" y="360" width="136" height="7" rx="3.5" fill="#21324f"/>
    <rect x="62" y="380" width="104" height="7" rx="3.5" fill="#21324f"/>
    <text x="62" y="402" font-family="Consolas, 'Courier New', monospace" font-size="14" font-weight="700" fill="#2dd4bf">$ npm run build</text>
  </g>

  <g filter="url(#shadow)">
    <rect x="252" y="314" width="98" height="74" rx="18" fill="#111a2e" stroke="#1d2c49"/>
    <path d="M285 350l-16-14 16-14" fill="none" stroke="#38bdf8" stroke-width="7" stroke-linecap="round" stroke-linejoin="round"/>
    <path d="M317 322l16 14-16 14" fill="none" stroke="#2dd4bf" stroke-width="7" stroke-linecap="round" stroke-linejoin="round"/>
    <path d="M306 318l-12 38" fill="none" stroke="#818cf8" stroke-width="6" stroke-linecap="round"/>
  </g>

  <g filter="url(#shadow)">
    <circle cx="84" cy="218" r="30" fill="#111a2e" stroke="#1d2c49"/>
    <text x="84" y="228" font-family="Sora, Inter, sans-serif" font-size="29" font-weight="800" fill="#38bdf8" text-anchor="middle">{ }</text>
  </g>

  <g filter="url(#shadow)">
    <circle cx="322" cy="220" r="30" fill="#111a2e" stroke="#1d2c49"/>
    <path d="M308 222h28M322 208v28" stroke="url(#accent)" stroke-width="6" stroke-linecap="round"/>
  </g>

  <g opacity="0.7">
    <rect x="96" y="446" width="208" height="8" rx="4" fill="#18243d"/>
    <rect x="144" y="446" width="112" height="8" rx="4" fill="url(#accent2)"/>
  </g>
</svg>
